<svg width="108" height="22" viewBox="0 0 108 22" fill="none" xmlns="http://www.w3.org/2000/svg">
<path d="M8.66 21.392C6.00933 21.392 4.04 20.7573 2.752 19.488C1.48267 18.2187 0.848 16.4547 0.848 14.196V0.979999H3.928V14.196C3.928 15.7453 4.32 16.8933 5.104 17.64C5.888 18.368 7.07333 18.732 8.66 18.732C10.2653 18.732 11.4507 18.368 12.216 17.64C13 16.8933 13.392 15.7453 13.392 14.196V0.979999H16.5V14.196C16.5 16.4547 15.856 18.2187 14.568 19.488C13.2987 20.7573 11.3293 21.392 8.66 21.392ZM25.2539 21.392C23.1633 21.392 21.5486 20.916 20.4099 19.964C19.2899 19.012 18.7113 17.7707 18.6739 16.24H21.4459C21.5019 17.136 21.8286 17.8547 22.4259 18.396C23.0419 18.9187 23.9753 19.18 25.2259 19.18C26.3273 19.18 27.1113 18.984 27.5779 18.592C28.0446 18.1813 28.2779 17.6773 28.2779 17.08C28.2779 16.52 28.1099 16.0907 27.7739 15.792C27.4379 15.4933 27.0739 15.2973 26.6819 15.204C26.3086 15.092 25.5899 14.924 24.5259 14.7C23.4246 14.4387 22.5099 14.168 21.7819 13.888C21.0539 13.608 20.4379 13.188 19.9339 12.628C19.4299 12.068 19.1779 11.3307 19.1779 10.416C19.1779 9.16533 19.6539 8.16667 20.6059 7.42C21.5766 6.67333 22.9113 6.3 24.6099 6.3C26.4766 6.3 27.9139 6.72933 28.9219 7.588C29.9299 8.44667 30.4899 9.53867 30.6019 10.864H27.8299C27.6993 10.1733 27.4006 9.61333 26.9339 9.184C26.4859 8.736 25.7299 8.512 24.6659 8.512C23.7699 8.512 23.1073 8.67067 22.6779 8.988C22.2486 9.30533 22.0339 9.744 22.0339 10.304C22.0339 10.7147 22.1553 11.0413 22.3979 11.284C22.6406 11.5267 22.9486 11.7133 23.3219 11.844C23.6953 11.956 24.2459 12.0867 24.9739 12.236C25.1233 12.2547 25.3473 12.3013 25.6459 12.376C26.7846 12.6373 27.7273 12.9173 28.4739 13.216C29.2206 13.5147 29.8459 13.9627 30.3499 14.56C30.8726 15.1573 31.1339 15.9507 31.1339 16.94C31.1339 18.34 30.6206 19.432 29.5939 20.216C28.5673 21 27.1206 21.392 25.2539 21.392ZM42.7058 6.72H45.4498V21H42.7058V19.208H42.6498C42.2205 19.8427 41.6138 20.3653 40.8298 20.776C40.0458 21.1867 39.0845 21.392 37.9458 21.392C36.5458 21.392 35.3978 20.9907 34.5018 20.188C33.6245 19.3667 33.1858 18.172 33.1858 16.604V6.72H35.9298V15.848C35.9298 16.856 36.1631 17.6493 36.6298 18.228C37.1151 18.788 37.8525 19.068 38.8418 19.068C40.0178 19.068 40.9511 18.7413 41.6418 18.088C42.3511 17.4347 42.7058 16.5667 42.7058 15.484V6.72ZM61.6323 13.552C61.6323 14.0933 61.6229 14.4387 61.6043 14.588H50.6283C50.6656 15.876 51.0483 16.968 51.7763 17.864C52.5229 18.7413 53.5683 19.18 54.9123 19.18C56.0323 19.18 56.8909 18.9093 57.4883 18.368C58.1043 17.8267 58.4963 17.2387 58.6643 16.604H61.4643C61.0536 18.06 60.2976 19.2267 59.1963 20.104C58.0949 20.9813 56.6483 21.42 54.8563 21.42C53.3816 21.42 52.1123 21.0933 51.0483 20.44C49.9843 19.7867 49.1723 18.8907 48.6123 17.752C48.0709 16.6133 47.8003 15.3067 47.8003 13.832C47.8003 12.3387 48.0803 11.0227 48.6403 9.884C49.2189 8.74533 50.0403 7.85867 51.1043 7.224C52.1683 6.58933 53.4189 6.272 54.8563 6.272C57.0029 6.272 58.6643 6.92533 59.8403 8.232C61.0349 9.53867 61.6323 11.312 61.6323 13.552ZM58.7763 12.432C58.7763 11.2933 58.4029 10.36 57.6563 9.632C56.9283 8.88533 55.9669 8.512 54.7723 8.512C53.6149 8.512 52.6536 8.876 51.8883 9.604C51.1229 10.3133 50.7029 11.256 50.6283 12.432H58.7763ZM78.6217 21.392C76.7551 21.392 75.1124 20.9533 73.6937 20.076C72.2937 19.18 71.2017 17.948 70.4177 16.38C69.6524 14.7933 69.2697 13.0013 69.2697 11.004C69.2697 9.00667 69.6524 7.21467 70.4177 5.628C71.2017 4.04133 72.3031 2.80933 73.7217 1.932C75.1404 1.036 76.7831 0.587999 78.6497 0.587999C80.2737 0.587999 81.7017 0.905332 82.9337 1.54C84.1844 2.17467 85.1737 3.03333 85.9017 4.116C86.6297 5.19867 87.0777 6.42133 87.2457 7.784H84.0257C83.8017 6.53333 83.2697 5.46933 82.4297 4.592C81.5897 3.696 80.3111 3.248 78.5937 3.248C76.5217 3.248 74.9817 3.98533 73.9737 5.46C72.9844 6.93467 72.4897 8.77333 72.4897 10.976C72.4897 13.1973 72.9844 15.0453 73.9737 16.52C74.9817 17.9947 76.5217 18.732 78.5937 18.732C80.3671 18.732 81.6831 18.256 82.5417 17.304C83.4191 16.3333 83.9137 15.1387 84.0257 13.72H87.2457C87.0964 15.2133 86.6577 16.5387 85.9297 17.696C85.2017 18.8533 84.2124 19.7587 82.9617 20.412C81.7111 21.0653 80.2644 21.392 78.6217 21.392ZM92.2879 21H89.5439V6.72H92.2879V21ZM91.7839 4.564H89.5999L91.2519 0.699999H94.4719L91.7839 4.564ZM99.3161 21.392C97.8975 21.392 96.7588 21.0187 95.9001 20.272C95.0601 19.5253 94.6401 18.536 94.6401 17.304C94.6401 16.2773 94.8735 15.456 95.3401 14.84C95.8255 14.2053 96.4881 13.72 97.3281 13.384C98.1868 13.0293 99.2788 12.7307 100.604 12.488C101.519 12.32 102.209 12.1707 102.676 12.04C103.143 11.8907 103.516 11.6947 103.796 11.452C104.076 11.1907 104.216 10.836 104.216 10.388C104.216 9.11867 103.311 8.484 101.5 8.484C100.287 8.484 99.4375 8.68933 98.9521 9.1C98.4668 9.51067 98.1868 10.2013 98.1121 11.172H95.3121C95.3868 9.69733 95.9375 8.512 96.9641 7.616C97.9908 6.72 99.5401 6.272 101.612 6.272C103.217 6.272 104.496 6.664 105.448 7.448C106.419 8.21333 106.904 9.464 106.904 11.2V17.752C106.904 18.2933 106.951 18.6947 107.044 18.956C107.137 19.1987 107.315 19.32 107.576 19.32L107.912 19.292V20.972C107.427 21.084 106.96 21.14 106.512 21.14C105.803 21.14 105.261 20.9813 104.888 20.664C104.533 20.328 104.319 19.768 104.244 18.984H104.188C103.721 19.7493 103.077 20.3467 102.256 20.776C101.435 21.1867 100.455 21.392 99.3161 21.392ZM99.9321 19.18C101.22 19.18 102.256 18.8627 103.04 18.228C103.824 17.5747 104.216 16.6413 104.216 15.428V13.384C104.011 13.5707 103.647 13.748 103.124 13.916C102.62 14.0653 101.939 14.2333 101.08 14.42C99.7921 14.6813 98.8681 15.0173 98.3081 15.428C97.7668 15.82 97.4961 16.38 97.4961 17.108C97.4961 18.4893 98.3081 19.18 99.9321 19.18Z" fill="black"/>
</svg>
