<svg width="342" height="213" viewBox="0 0 342 213" fill="none" xmlns="http://www.w3.org/2000/svg">
<g clip-path="url(#clip0_2752_140)">
<mask id="mask0_2752_140" style="mask-type:luminance" maskUnits="userSpaceOnUse" x="0" y="0" width="342" height="213">
<path d="M342 0H0V213H342V0Z" fill="white"/>
</mask>
<g mask="url(#mask0_2752_140)">
<path d="M0 106.477C0 106.477 0 106.523 0 106.547C0 165.331 47.8057 213 106.781 213C165.756 213 213.562 165.331 213.562 106.523C213.562 106.5 213.562 106.477 213.562 106.453H0V106.477Z" fill="white"/>
<path d="M342 0C342 0 341.953 0 341.929 0C282.954 0 235.148 47.6694 235.148 106.477C235.148 165.284 282.954 212.953 341.929 212.953C341.953 212.953 341.976 212.953 342 212.953V0Z" fill="white"/>
</g>
</g>
<defs>
<clipPath id="clip0_2752_140">
<rect width="342" height="213" fill="white"/>
</clipPath>
</defs>
</svg>
